<?xml version="1.0" standalone="no"?>
<!DOCTYPE svg PUBLIC "-//W3C//DTD SVG 20010904//EN"
 "http://www.w3.org/TR/2001/REC-SVG-20010904/DTD/svg10.dtd">
<svg version="1.0" xmlns="http://www.w3.org/2000/svg"
 width="680.000000pt" height="680.000000pt" viewBox="0 0 680.000000 680.000000"
 preserveAspectRatio="xMidYMid meet">
<metadata>
Created by potrace 1.11, written by Peter Selinger 2001-2013
</metadata>
<g transform="translate(0.000000,680.000000) scale(0.100000,-0.100000)"
fill="#000000" stroke="none">
<path d="M5310 6786 c0 -5 -3 -6 -7 -3 -3 4 -11 3 -17 -2 -6 -4 -87 -48 -181
-96 -93 -48 -219 -114 -280 -145 -60 -31 -160 -83 -222 -115 -62 -31 -117 -63
-123 -70 -8 -9 -12 -576 -14 -1948 -2 -1064 -6 -1940 -10 -1945 -6 -11 -266
-168 -341 -206 -22 -12 -42 -24 -45 -27 -3 -3 -25 -16 -50 -29 -25 -14 -53
-31 -62 -39 -10 -8 -18 -10 -18 -6 0 4 -8 1 -17 -7 -10 -9 -45 -30 -78 -48
-79 -41 -119 -64 -125 -70 -10 -10 -86 -51 -112 -61 -16 -6 -28 -15 -28 -20 0
-5 -4 -9 -8 -9 -8 0 -71 -34 -156 -84 l-39 -23 -86 50 c-47 27 -120 67 -161
89 -41 23 -88 48 -105 58 -16 9 -61 34 -100 55 -38 22 -72 43 -73 47 -2 4 -10
8 -17 8 -8 0 -31 11 -51 25 -20 14 -43 25 -50 25 -7 0 -14 3 -16 8 -1 4 -19
15 -38 26 -136 72 -186 101 -192 110 -4 6 -8 7 -8 3 0 -5 -12 0 -27 11 -16 10
-43 25 -60 33 -18 8 -33 17 -33 21 0 5 -6 8 -14 8 -31 0 -40 31 -41 131 0 55
1 99 3 99 3 0 20 -9 38 -21 19 -11 34 -17 34 -12 0 4 4 3 8 -3 4 -6 54 -36
112 -66 58 -31 139 -75 180 -98 41 -23 83 -44 93 -47 9 -3 17 -9 17 -14 0 -5
5 -9 12 -9 6 0 74 -34 151 -76 77 -42 163 -88 191 -103 28 -14 53 -28 56 -31
12 -12 192 -100 205 -100 13 0 186 86 275 137 44 25 159 87 270 145 47 25 101
54 120 65 19 11 72 39 117 62 135 70 125 20 121 582 -4 463 -5 481 -23 493
-11 6 -58 31 -105 56 -47 25 -92 50 -100 55 -8 5 -21 10 -28 11 -8 2 -21 9
-30 16 -10 8 -69 41 -132 73 -63 32 -129 66 -146 76 -17 9 -41 22 -53 28 -24
13 -36 19 -151 79 -47 24 -121 64 -165 87 -111 59 -260 137 -325 170 -30 16
-67 37 -82 47 -16 11 -28 16 -28 12 0 -3 -6 -2 -12 3 -7 6 -71 41 -143 78 -71
37 -143 75 -160 85 -16 9 -97 52 -180 95 -256 132 -270 140 -273 148 -2 4 -11
7 -21 7 -9 0 -21 4 -26 9 -6 6 -41 26 -80 46 -38 20 -101 53 -140 73 -38 21
-71 40 -73 45 -2 4 -11 7 -21 7 -9 0 -21 4 -26 9 -6 5 -64 37 -130 72 -66 34
-131 69 -145 76 -40 21 -67 16 -146 -27 -40 -23 -88 -48 -106 -58 -18 -9 -35
-19 -38 -22 -3 -3 -21 -13 -40 -24 -45 -23 -152 -82 -210 -114 -134 -74 -188
-104 -220 -120 -44 -21 -101 -61 -117 -82 -10 -12 -12 -353 -13 -1523 l0
-1507 27 -29 c27 -27 87 -64 183 -112 25 -13 108 -58 184 -101 77 -43 141 -78
144 -78 2 0 17 -9 33 -21 16 -11 29 -17 29 -14 0 3 12 -2 28 -13 15 -10 56
-34 92 -54 76 -41 135 -74 242 -134 43 -24 82 -44 87 -44 5 0 11 -3 13 -7 2
-5 19 -16 38 -25 43 -21 133 -71 140 -78 3 -3 31 -18 63 -35 32 -16 66 -34 75
-40 9 -5 58 -32 107 -60 50 -27 113 -62 140 -78 28 -15 61 -33 75 -40 14 -6
27 -14 30 -18 3 -3 10 -8 15 -10 9 -4 288 -157 325 -179 36 -21 249 -137 285
-155 22 -11 42 -23 43 -27 2 -5 7 -8 11 -8 9 0 260 -137 279 -152 7 -6 30 -13
51 -15 46 -5 95 17 356 162 39 21 95 52 125 68 30 16 73 39 95 51 22 12 90 48
150 81 61 32 124 66 140 75 17 9 66 36 110 60 44 23 127 69 185 100 58 32 146
79 195 105 50 26 104 56 120 65 17 10 64 36 105 58 41 22 102 54 135 72 173
94 213 115 245 132 42 23 155 84 230 125 30 16 96 51 145 78 50 26 104 56 120
65 37 21 189 103 268 144 32 17 70 40 83 53 l25 23 -2 2423 c-1 1332 -6 2432
-10 2444 -6 17 -85 69 -119 78 -22 6 -106 50 -108 56 -2 5 -9 9 -16 9 -6 0
-81 34 -166 76 -340 167 -400 194 -430 192 -17 -1 -30 -7 -30 -12z"/>
</g>
</svg>
