<?xml version="1.0" encoding="UTF-8"?>
<svg width="210mm" height="15.607mm" version="1.1" viewBox="0 0 218.6 10.607" preserveAspectRatio="none" xmlns="http://www.w3.org/2000/svg"><g transform="translate(2.4054 -108.78)"><rect x="-2.4054" y="108.78" width="218.6" height="32.607" fill="#241c1c" stroke-width=".2662"/><g fill="#fc0" stroke-width=".2229"><rect transform="matrix(1 0 .30117 .95357 0 0)" x="-36.762" y="114.08" width="16.677" height="34.195"/><rect transform="matrix(1 0 .30117 .95357 0 0)" x="-9.3572" y="114.08" width="16.677" height="34.195"/><rect transform="matrix(1 0 .30117 .95357 0 0)" x="18.1" y="114.08" width="16.677" height="34.195"/><rect transform="matrix(1 0 .30117 .95357 0 0)" x="45.504" y="114.08" width="16.677" height="34.195"/><rect transform="matrix(1 0 .30117 .95357 0 0)" x="72.454" y="114.08" width="16.677" height="34.195"/><rect transform="matrix(1 0 .30117 .95357 0 0)" x="99.858" y="114.08" width="16.677" height="34.195"/><rect transform="matrix(1 0 .30117 .95357 0 0)" x="127.32" y="114.08" width="16.677" height="34.195"/><rect transform="matrix(1 0 .30117 .95357 0 0)" x="154.72" y="114.08" width="16.677" height="34.195"/></g></g></svg>
