<svg xmlns="http://www.w3.org/2000/svg" viewBox="0 0 138.9 169.5"><g stroke-width="0"><path fill="#31e6fd" d="M38.2 102.8C63.8 84.4 92 65.2 92 94v11.7c-22.7 13.2-21.2 12.4-36.2 4.6-6.9-2.6-18.3-13.9-13.7-1.5 6.2 7.2 24.7 16.2 26.3 16.7 54.1-4 38.9-79 27.5-114 10.9-5.8 27-16.6 37.1-.3 31 88.3-79.7 154.3-94.8 91.5z"/><path fill="#642b8f" d="M112.3 116.8c-2.5-36.5-30-84.5 24.2-104.6.1 42.8.4 72 .3 118.9l-68 38.3c1.5-57.3 7-32.2 43.5-52.6z"/><path fill="#2d2f90" d="M3.2 57.3c18.6-11.6 4-19.7 86 24.9-21.5 11.6-20 9-20.2 34-7.3-3.3-36.8-20-44.7-24.4 17.1 30.4 48.8 34.7 44.5 77.6C-11.3 121.2-.5 153 3.2 57.3z"/><path fill="#450069" d="M97.3 109.8c1.8-32.5.9-60.3 1-96.6 11.3 5.4 9.3 4.4 18 9 .3 64.5.2 80.4-.1 96.7-69 46.7-70.6 17.9-18.9-9.1zm21.2-38.2c-96.6-113.2-48.3-56.6 0 0z"/><path fill="#1a1363" d="M66.7 168.8c-22.5-12.3-44.1-24.5-64.4-35.5-1.7-1-2.3-1.5-2.3-2.5V56.9c0-1.1.8-1.7 2-2.4l18-9.9c1-.4 1.3-.4 2 0l68.6 36.1c1.3.7 1.3.7 1.3 1.5v23.4c-.2.5-.6 1-1 1.3l-19.2 10.3c-2.1 1.2-2.2 1.2-4.5 0L42 103.6v5.3l26.8 14.9c9.2-5.4 18.5-10.4 27-15.6l.2-96.6c0-.4.5-.8 1.5-1.3l19.3-10c1.3-.5 1.3-.4 2.3 0l18.7 9.1c.5.2 1 .8 1 1.4l.1 120.5c0 .4-.3.8-1.2 1.4l-67 36.2c-1.5.8-2.4.8-4 0zm0-22L22.3 122c-1.5-.8-1.6-1.8-1.6-2.8l.1-29.2c0-1.1 1.2-1.8 1.9-1.4L67.3 113l.1-18L4.1 60.5v69.2L66.7 164v-17.1zm68.1-17.2V14.7l-16.3 8.7-.1 96.8c-.2.5-.6 1-1.1 1.2L70.9 147 71 164zm-22.7-10c-4.8-2.5-9.9-6-14.1-7.9-9.3 5.5-18.9 10.7-27 15.6v14.9c14-8 28.3-15.2 41-22.6zm2.2-96.2L100 15.6v92.5c5.4 2.7 9 5.4 14.3 8V23.3zM87.8 104V86l-16.3 9v18zm-2.3-21.2l-64-34.1-15.2 8.3 63.3 34.6zm46.9-71.4L118 4.1l-15.5 8.2 13.9 7.6z"/></g></svg>