<svg xmlns="http://www.w3.org/2000/svg" viewBox="0 0 292 292"><path fill="#2c3590" d="M-.1 0v292h292V0zm86.3 249c0 1.9-.4 2.4-2.3 2.4q-21.2-.2-42.3 0c-1.7 0-2.1-.5-2.1-2.2V112.8c0-1.7.4-2.2 2.2-2.2H84c1.8 0 2.2.5 2.2 2.2v136.3zm2.2-175.4c-2.5 9.8-9.4 15.4-19 17.2a28 28 0 01-24.5-5.3 23.1 23.1 0 01-7.7-13.1c-.1-.4 0-1-.5-1v-8.6c.7-.2.5-1 .7-1.4a24 24 0 0121.4-18.1c8-.9 15.6.1 22 5.6 7.6 6.5 10 15.1 7.6 24.7zM210 251.3c-1.7 0-2.2-.4-2.1-2.1v-72.4a59 59 0 00-1.9-16c-5.7-20.9-29.5-19.7-39.1-9.5-5 5.2-8 11-8 18.4q-.2 31.3-.2 62.7v17c.1 1.6-.3 2-1.8 2h-43c-1.7 0-2-.6-2-2.1.2-3.5.1-7 .1-10.6 0-42.1.5-84.2 0-126.2 0-1.5.4-1.8 1.8-1.8h43.1c1.6 0 1.9.6 1.9 2v17.1a120.1 120.1 0 018-9.4 44 44 0 0128.1-12.7c12.3-1 24 .7 34.8 7.3a50.4 50.4 0 0122 31.3 90 90 0 013 24v79c0 1.5-.3 2-2 2H210z"/></svg>
