<svg xmlns="http://www.w3.org/2000/svg" viewBox="0 0 292 292"><path d="M0 0v292h292V0zm139.1 83.8c-7.7 0-15.5.3-23.2-.2a22.1 22.1 0 01-20.6-20.3A22.6 22.6 0 01113 39.2c.4-.1 1 .1 1-.5h6.8c.6.8 1.6.5 2.4.7a22.5 22.5 0 0117 21.6v21.1c0 .8.2 1.7-1.2 1.7zm-21 11.4a22.5 22.5 0 01-.6 45h-56a22.5 22.5 0 01-3.7-44.8 26.7 26.7 0 014.3-.2h56zm-22.9 79a22.5 22.5 0 1145 .4v55.9a22.5 22.5 0 01-44.8 3.7 28.2 28.2 0 01-.2-4.4v-27.4V174zm-11.4-9c-.2 4.3.6 9.4-.6 14.4a22.6 22.6 0 01-44.4-3.8 22.6 22.6 0 0118-23.6 19.1 19.1 0 014-.4H82c1.4 0 1.8.4 1.8 1.7v11.7zm69.1 43c8 .1 16.1-.5 24.1.2 11 1 19.5 10.5 19.8 21.6a22.5 22.5 0 11-45 .6v-21c0-.8 0-1.5 1.1-1.5zm21-11.4a22.5 22.5 0 01.3-45h56.2a22.4 22.4 0 0122.5 18.1c0 .3 0 .7.4.8v7.6c-.8.4-.6 1.2-.8 1.8a22.2 22.2 0 01-21.2 16.7q-28.7.2-57.4 0zm22.9-78.4a22.5 22.5 0 01-45-.4V61c0-10.6 7.4-19.4 18-21.8.3-.1.8.1 1-.5h6.6c.6.9 1.4.4 2.1.6a22.3 22.3 0 0117.3 21.3c.1 19.2.2 38.5 0 57.8zm56.5 3.3c-.8.5-.6 1.3-.8 2a22.5 22.5 0 01-21.3 16.5H210c-.8 0-1.8.3-1.7-1.1 0-7.8-.5-15.6.2-23.4a22.2 22.2 0 0120.5-20.4 22.6 22.6 0 0124 17.8c0 .4-.2.9.4 1z"/></svg>
