<svg xmlns="http://www.w3.org/2000/svg" viewBox="0 0 292 292"><path d="M0 0v292h292V0zm255 80a93 93 0 01-19 18 1 1 0 000 1 115 115 0 01-1 20 128 128 0 01-4 21 135 135 0 01-23 46 123 123 0 01-45 36 126 126 0 01-34 11 139 139 0 01-30 1 130 130 0 01-63-20c25 3 47-4 67-19a46 46 0 01-26-9 45 45 0 01-16-23 47 47 0 0020 0 46 46 0 01-36-46 46 46 0 0020 6 49 49 0 01-7-6 45 45 0 01-12-25 45 45 0 015-29l1-1a129 129 0 0033 29 129 129 0 0036 15 121 121 0 0019 3h5c-3-16 1-29 11-40a43 43 0 0128-15c15-2 28 2 38 13a3 3 0 003 0 93 93 0 0027-10h1a47 47 0 01-20 25 77 77 0 0013-3 114 114 0 0012-4 39 39 0 01-3 5z"/></svg>
