<svg xmlns="http://www.w3.org/2000/svg" viewBox="0 0 292 292"><path d="M207 127.4a77.1 77.1 0 01-36.8 65.8l-.6.3a77.2 77.2 0 01-79.5 0 75.2 75.2 0 01-7.2-4.9A77.2 77.2 0 11207 127.4zM248.4 298H13.2a179.7 179.7 0 0113-56 172.6 172.6 0 0116.5-30.8l3.4 3.5a117.1 117.1 0 00144.1 18.6 118.7 118.7 0 0027.9-23.3 177.3 177.3 0 0117.1 31.6 180.6 180.6 0 0113.2 56.4z" fill="#333"/><path d="M269.8 298.4H33.7A180.8 180.8 0 0147.2 229c2-5 4.2-9.6 6.5-14a172.7 172.7 0 0110-16.8 117.7 117.7 0 0026.8 22.1 116.6 116.6 0 00135-10.2A115.2 115.2 0 00239 197a177.3 177.3 0 0117.2 31.6 182.4 182.4 0 0113.6 69.8zM228 115.8a77.1 77.1 0 01-36.9 65.8l-.5.3a77.2 77.2 0 01-79.6 0 75.2 75.2 0 01-7.1-4.9 77.2 77.2 0 11124-61.2z" fill="#a6a6a6" stroke="#333" stroke-width="7px"/></svg>
