<svg xmlns="http://www.w3.org/2000/svg" viewBox="0 0 292 292"><path fill="#333" d="M90.7 127.4a77.1 77.1 0 0036.8 65.8l.6.3a77.2 77.2 0 0079.5 0 75.2 75.2 0 007.2-4.9 77.2 77.2 0 10-124-61.2zM49.3 298h235.2a179.7 179.7 0 00-13-56 172.6 172.6 0 00-16.5-30.8l-3.3 3.5a117.1 117.1 0 01-144.2 18.6A118.7 118.7 0 0179.7 210a177.3 177.3 0 00-17.2 31.6A180.6 180.6 0 0049.3 298z"/><path d="M28 298.4h236a180.8 180.8 0 00-13.5-69.4c-2-5-4.1-9.6-6.4-14a172.7 172.7 0 00-10-16.8 117.7 117.7 0 01-26.8 22.1 116.6 116.6 0 01-135-10.2A115.2 115.2 0 0158.7 197a177.3 177.3 0 00-17.1 31.6 182.4 182.4 0 00-13.7 69.8zM69.8 115.8a77.1 77.1 0 0036.8 65.8l.6.3a77.2 77.2 0 0079.5 0 75.2 75.2 0 007.2-4.9 77.2 77.2 0 10-124.1-61.2z" fill="#a6a6a6" stroke="#333" stroke-width="7px"/></svg>
